<svg xmlns="http://www.w3.org/2000/svg" width="197" height="30" viewBox="0 0 197 30">
    <defs>
        <linearGradient id="a" x1="8.434%" x2="90.75%" y1="-8.335%" y2="107.191%">
            <stop offset="0%" stop-color="#D64541"/>
            <stop offset="53%" stop-color="#D4433F"/>
            <stop offset="79%" stop-color="#CC3C3A"/>
            <stop offset="100%" stop-color="#BF3030"/>
        </linearGradient>
        <linearGradient id="b" x1="-49.903%" x2="146.009%" y1="-31.432%" y2="102.452%">
            <stop offset="0%" stop-color="#FFF"/>
            <stop offset="100%" stop-color="#C9C9C9"/>
        </linearGradient>
        <linearGradient id="c" x1="28857%" x2="97014%" y1="1298%" y2="67837%">
            <stop offset="0%" stop-color="#FFF"/>
            <stop offset="100%" stop-color="#C9C9C9"/>
        </linearGradient>
    </defs>
    <g fill="none" fill-rule="nonzero">
        <g>
            <ellipse cx="15.061" cy="15" fill="url(#a)" rx="15.061" ry="15"/>
            <path fill="url(#b)" d="M10.58 6.862c-.422.408-.765.89-1.012 1.422a4.108 4.108 0 0 0-.355 1.694s-.01 1.74-.018 1.907c-.032.729-.174 1.053-.61 1.578-.577.694-1.807.6-1.807.6v1.874s1.23-.094 1.807.6c.436.526.578.85.61 1.578.007.167.018 1.907.018 1.907-.003.583.117 1.16.355 1.694.247.532.59 1.014 1.012 1.421.407.392 1.657 1.238 3.192 1.238h6.184V22.5h-6.024c-1.77 0-2.448-1.163-2.61-1.497a2.211 2.211 0 0 1-.214-.975v-1.393c0-.817-.157-1.57-.465-2.238-.477-1.06-.89-1.397-.89-1.397s.413-.338.89-1.396c.309-.668.465-1.421.465-2.238V9.973c-.004-.337.069-.67.213-.975.163-.335.84-1.498 2.61-1.498h6.025V5.625h-6.184c-1.535 0-2.785.846-3.192 1.237z"/>
            <path fill="url(#c)" d="M15.061 1.125C7.367 1.125 1.13 7.337 1.13 15S7.367 28.875 15.06 28.875c7.695 0 13.932-6.212 13.932-13.875S22.756 1.125 15.06 1.125zm0 26.625C7.991 27.75 2.26 22.042 2.26 15S7.991 2.25 15.061 2.25c7.07 0 12.802 5.708 12.802 12.75s-5.731 12.75-12.802 12.75z"/>
        </g>
        <g fill="#D64541">
            <path d="M47.093 21.547a6.5 6.5 0 0 0 3.425-.957c1.015-.637 1.867-1.614 2.557-2.93l2.593 1.11c-.936 1.843-2.141 3.22-3.616 4.134a9.094 9.094 0 0 1-4.96 1.43 9.376 9.376 0 0 1-3.628-.72 9.487 9.487 0 0 1-4.97-4.936 9.339 9.339 0 0 1 0-7.216 9.521 9.521 0 0 1 4.97-4.926 9.376 9.376 0 0 1 3.629-.72 9.094 9.094 0 0 1 4.96 1.43c1.471.913 2.677 2.29 3.615 4.132l-2.593 1.11c-.69-1.322-1.542-2.29-2.557-2.905a6.384 6.384 0 0 0-3.425-.98 6.332 6.332 0 0 0-4.614 1.89 6.47 6.47 0 0 0 0 9.164 6.33 6.33 0 0 0 4.614 1.89zM60.2 22.367a6.459 6.459 0 0 1-1.975-4.746c0-1.844.659-3.423 1.976-4.736a6.513 6.513 0 0 1 4.765-1.967c1.852 0 3.437.655 4.756 1.967 1.319 1.312 1.978 2.89 1.976 4.736a6.459 6.459 0 0 1-1.976 4.746c-1.317 1.311-2.902 1.967-4.756 1.967a6.513 6.513 0 0 1-4.765-1.967zm1.977-7.539a3.923 3.923 0 0 0-.493 4.97 3.961 3.961 0 0 0 4.8 1.45 3.932 3.932 0 0 0 2.361-4.406 3.948 3.948 0 0 0-3.879-3.165 3.834 3.834 0 0 0-2.79 1.15v.001zM164.108 22.367a6.459 6.459 0 0 1-1.976-4.746c0-1.844.659-3.423 1.976-4.736a6.513 6.513 0 0 1 4.765-1.967c1.852 0 3.437.655 4.756 1.967 1.319 1.312 1.978 2.89 1.976 4.736a6.459 6.459 0 0 1-1.976 4.746c-1.317 1.311-2.902 1.967-4.756 1.967a6.513 6.513 0 0 1-4.765-1.967zm1.976-7.539a3.923 3.923 0 0 0-.493 4.97 3.961 3.961 0 0 0 4.8 1.45 3.932 3.932 0 0 0 2.361-4.406 3.948 3.948 0 0 0-3.879-3.165 3.834 3.834 0 0 0-2.79 1.15v.001zM180.147 22.367a6.459 6.459 0 0 1-1.976-4.746c0-1.844.659-3.423 1.976-4.736a6.513 6.513 0 0 1 4.765-1.967c1.852 0 3.438.655 4.756 1.967 1.32 1.312 1.978 2.89 1.976 4.736a6.459 6.459 0 0 1-1.976 4.746c-1.317 1.311-2.902 1.967-4.756 1.967a6.513 6.513 0 0 1-4.765-1.967zm1.976-7.539a3.923 3.923 0 0 0-.492 4.97 3.961 3.961 0 0 0 4.799 1.45 3.932 3.932 0 0 0 2.362-4.406 3.948 3.948 0 0 0-3.88-3.165 3.834 3.834 0 0 0-2.789 1.15v.001zM97.05 10.908c1.853 0 3.438.656 4.757 1.968 1.318 1.312 1.977 2.89 1.976 4.736l-.025.855H93.177c.103.65.5 1.334 1.192 2.054a3.919 3.919 0 0 0 4.756.438c.612-.364 1.153-1 1.622-1.91l2.562 1.104c-.715 1.424-1.606 2.469-2.673 3.134a6.529 6.529 0 0 1-3.588 1.041c-1.852 0-3.437-.655-4.756-1.967-1.318-1.312-1.982-2.894-1.99-4.745 0-1.845.663-3.423 1.99-4.737 1.328-1.313 2.914-1.97 4.759-1.97zm3.482 4.797c-.2-.404-.589-.831-1.168-1.283a3.95 3.95 0 0 0-4.626 0c-.564.46-.95.887-1.157 1.283h6.95zM146.093 20.156c-.716 1.424-1.607 2.47-2.674 3.134a6.537 6.537 0 0 1-3.591 1.042c-1.853 0-3.444-.656-4.772-1.968a6.455 6.455 0 0 1-1.976-4.745c0-1.844.658-3.423 1.976-4.736 1.317-1.313 2.908-1.97 4.772-1.968a6.537 6.537 0 0 1 3.591 1.042c1.067.665 1.958 1.707 2.674 3.125l-2.566 1.104c-.47-.902-1.011-1.539-1.627-1.91a3.98 3.98 0 0 0-5.119.77 3.94 3.94 0 0 0 0 5.155 3.98 3.98 0 0 0 5.12.77c.611-.364 1.154-1.001 1.626-1.911l2.566 1.096zM84.957 5.816v6.365a6.755 6.755 0 0 0-8.717.695c-1.317 1.312-1.976 2.89-1.976 4.736a6.71 6.71 0 0 0 3.67 5.986 6.765 6.765 0 0 0 7.023-.537v1.273h2.79V5.816h-2.79zm-1.145 14.6a3.997 3.997 0 0 1-4.965.552 3.959 3.959 0 0 1-1.602-4.712 3.986 3.986 0 0 1 4.28-2.567 3.975 3.975 0 0 1 3.432 3.615v.623a3.812 3.812 0 0 1-1.145 2.49zM129.566 16a4.533 4.533 0 0 0-.182-.23c-1.086-1.253-2.906-1.95-5.01-2.09-2.959-.19-4.553-.953-4.553-2.293 0-.09.004-.178.011-.263.074-.831.503-1.471 1.287-1.92a3.863 3.863 0 0 1 1.216-.463c.374-.093.759-.14 1.145-.142 1.219 0 2.476.438 3.31 1.312.475.415 1.256 1.744 1.256 1.744l2.473-.926c-.232-.747-1.046-2.02-1.71-2.752-1.37-1.441-3.301-2.161-5.33-2.161-1.705 0-3.164.463-4.378 1.389-1.377 1.05-2.065 2.445-2.065 4.185 0 1.08.318 2 .955 2.76.058.077.116.153.183.23 1.085 1.253 2.905 1.95 5.01 2.09 2.958.19 4.553.953 4.553 2.292 0 .961-.433 1.69-1.298 2.186a3.863 3.863 0 0 1-1.216.463c-.375.092-.759.14-1.145.14-1.22 0-2.477-.437-3.311-1.31-.474-.416-1.255-1.745-1.255-1.745l-2.474.926c.233.747 1.046 2.02 1.711 2.753 1.37 1.44 3.3 2.16 5.33 2.16 1.704 0 3.163-.463 4.376-1.388 1.376-1.051 2.063-2.447 2.063-4.187 0-1.08-.318-2-.955-2.76h.003zM194.21 5.816H197v18.519h-2.79zM159.575 16.29c-.027-2.976-2.455-5.377-5.444-5.382a5.247 5.247 0 0 0-2.692.695V5.816h-2.79v18.518h2.79V16.29a2.668 2.668 0 0 1 2.673-2.662 2.668 2.668 0 0 1 2.673 2.662v8.044h2.79V16.29zM114.479 13.686v-2.778h-1.395a6.475 6.475 0 0 0-3.952 1.273v-1.273h-2.789v13.426h2.79v-7.026a3.945 3.945 0 0 1 3.951-3.622h1.395z"/>
        </g>
    </g>
</svg>
