<svg viewBox="0 -22 512 512" xmlns="http://www.w3.org/2000/svg"><path d="m315.894531 173.972656c-21.894531 0-42.714843 7.011719-59.894531 19.972656-17.179688-12.960937-37.996094-19.972656-59.894531-19.972656-26.632813 0-51.671875 10.371094-70.503907 29.207032-38.871093 38.875-38.871093 102.128906 0 141.003906l119.792969 119.789062c2.929688 2.929688 6.765625 4.394532 10.605469 4.394532s7.679688-1.464844 10.605469-4.394532l119.792969-119.789062c18.832031-18.832032 29.203124-43.871094 29.203124-70.503906 0-26.632813-10.371093-51.671876-29.203124-70.5-18.832032-18.835938-43.871094-29.207032-70.503907-29.207032zm49.289063 148.996094-109.183594 109.183594-109.183594-109.183594c-27.175781-27.179688-27.175781-71.398438 0-98.578125 13.167969-13.167969 30.671875-20.417969 49.289063-20.417969 18.617187 0 36.121093 7.25 49.289062 20.417969 2.8125 2.8125 6.625 4.394531 10.605469 4.394531 3.976562 0 7.792969-1.582031 10.605469-4.394531 13.167969-13.167969 30.671875-20.417969 49.292969-20.417969 18.617187 0 36.121093 7.25 49.289062 20.417969 13.164062 13.164063 20.414062 30.667969 20.414062 49.289063 0 18.617187-7.25 36.125-20.417968 49.289062zm0 0"/><path d="m186.378906 158.53125c17.453125 0 34.25-9.046875 46.082032-24.820312 11.035156-14.71875 17.117187-34.054688 17.117187-54.445313s-6.082031-39.722656-17.117187-54.441406c-11.832032-15.777344-28.628907-24.824219-46.082032-24.824219-17.457031 0-34.253906 9.046875-46.082031 24.824219-11.039063 14.71875-17.121094 34.054687-17.121094 54.441406 0 20.390625 6.082031 39.726563 17.121094 54.445313 11.828125 15.773437 28.625 24.820312 46.082031 24.820312zm0-128.53125c17.992188 0 33.199219 22.558594 33.199219 49.265625 0 26.703125-15.207031 49.265625-33.199219 49.265625-18 0-33.203125-22.558594-33.203125-49.265625s15.203125-49.265625 33.203125-49.265625zm0 0"/><path d="m325.621094 158.53125c17.457031 0 34.253906-9.046875 46.085937-24.820312 11.035157-14.71875 17.117188-34.054688 17.117188-54.445313s-6.078125-39.722656-17.117188-54.441406c-11.832031-15.777344-28.628906-24.824219-46.085937-24.824219-17.453125 0-34.25 9.046875-46.082032 24.824219-11.035156 14.71875-17.113281 34.054687-17.113281 54.441406 0 20.390625 6.078125 39.726563 17.113281 54.445313 11.832032 15.773437 28.628907 24.820312 46.082032 24.820312zm0-128.53125c18 0 33.203125 22.558594 33.203125 49.265625 0 26.703125-15.207031 49.265625-33.203125 49.265625-17.992188 0-33.195313-22.558594-33.195313-49.265625s15.203125-49.265625 33.195313-49.265625zm0 0"/><path d="m497.238281 91.308594c-10.335937-13.78125-25.0625-21.6875-40.402343-21.6875-15.339844 0-30.066407 7.902344-40.402344 21.6875-9.523438 12.695312-14.765625 29.339844-14.765625 46.867187 0 17.53125 5.242187 34.175781 14.765625 46.871094 10.335937 13.78125 25.0625 21.6875 40.402344 21.6875 15.339843 0 30.066406-7.90625 40.402343-21.6875 9.519531-12.695313 14.761719-29.339844 14.761719-46.871094 0-17.527343-5.242188-34.171875-14.761719-46.867187zm-40.402343 85.421875c-13.644532 0-25.167969-17.65625-25.167969-38.554688 0-20.898437 11.523437-38.554687 25.167969-38.554687 13.640624 0 25.164062 17.65625 25.164062 38.554687 0 20.898438-11.523438 38.554688-25.164062 38.554688zm0 0"/><path d="m95.570312 91.308594c-10.335937-13.785156-25.0625-21.6875-40.402343-21.6875-15.339844 0-30.066407 7.902344-40.402344 21.6875-9.523437 12.695312-14.765625 29.339844-14.765625 46.867187 0 17.527344 5.242188 34.175781 14.765625 46.871094 10.335937 13.78125 25.0625 21.683594 40.402344 21.683594 15.339843 0 30.066406-7.902344 40.402343-21.683594 9.519532-12.695313 14.765626-29.34375 14.765626-46.871094 0-17.527343-5.246094-34.171875-14.765626-46.867187zm-40.402343 85.421875c-13.644531 0-25.167969-17.65625-25.167969-38.554688 0-20.898437 11.523438-38.554687 25.167969-38.554687 13.640625 0 25.167969 17.65625 25.167969 38.554687 0 20.898438-11.527344 38.554688-25.167969 38.554688zm0 0"/></svg>